<?xml version="1.0" encoding="UTF-8"?><svg id="a" xmlns="http://www.w3.org/2000/svg" width="15" height="15" viewBox="0 0 15 15"><path d="m14,11.5v-.5,3-2.5Zm-7,2.5h1-1Zm-5,0v-3h-1V1h12-2v1h-3v-1h-4v1H1v7h2v2h1-2v2h2v1h-2ZM11,6h1v-1h1-1v1h-1v2h3-3v3-5Zm-5,4v-5h1v5h2-3Zm-3-2v-4h1v4h-1Z" fill="#fff" stroke-width="0"/><path d="m6.5,5.5v4-4m-4,4v1h-1v-1h1m1,4h-1,1M13.5.5H.5v11h1v2H.5v1h8v-1h-1v-1h-1v1h-2v-1h-2v-1h2v-1h-1v-2h1V3.5h-1v-1h1v-1h1v7h-1v1h1v2h-1v1h2v-2h3v-1h-2v-3h3v2h-1v1h1v2h3v1h-1v1h1v1h1V6.5h-1v1h-2v-1h1v-1h1v-1h-2v1h-4v-1h-1V1.5h1v1h2v2h1v-2h1v-1h2V.5h0ZM1.5,5.5v-3h1v3h-1Zm0,3v-2h1v2h-1Zm10,2v-2h2v2h-2Z" stroke-width="0"/><rect x="8.5" y="7.5" width="1" height="1" fill="#fff" stroke-width="0"/><polygon points="9.5 7.5 8.5 7.5 8.5 8.5 9.5 8.5 9.5 7.5 9.5 7.5" stroke-width="0"/><rect x="11.5" y="2.5" width="1" height="1" fill="#fff" stroke-width="0"/><polygon points="12.5 2.5 11.5 2.5 11.5 3.5 12.5 3.5 12.5 2.5 12.5 2.5" stroke-width="0"/><rect x="7.5" y="3.5" width="1" height="1" fill="#fff" stroke-width="0"/><polygon points="8.5 3.5 7.5 3.5 7.5 4.5 8.5 4.5 8.5 3.5 8.5 3.5" stroke-width="0"/><polygon points="14.5 1.5 13.5 1.5 13.5 4.5 14.5 4.5 14.5 1.5 14.5 1.5" stroke-width="0"/><path d="m11,13v1-1Zm-1-1v1-1Z" fill="#fff" stroke-width="0"/><path d="m10.5,11.5h-3v1h2v1h1v1h2v-1h-1v-1h-1v-1h0Z" stroke-width="0"/></svg>